G04*
G04 #@! TF.GenerationSoftware,Altium Limited,Altium Designer,19.0.4 (130)*
G04*
G04 Layer_Color=65535*
%FSTAX25Y25*%
%MOIN*%
G70*
G01*
G75*
%ADD10C,0.01000*%
%ADD11C,0.00787*%
%ADD12C,0.00394*%
%ADD13C,0.00800*%
%ADD14C,0.00700*%
D10*
X0252267Y0056169D02*
G03*
X0252267Y0056169I-0008062J0D01*
G01*
Y0086169D02*
G03*
X0252267Y0086169I-0008062J0D01*
G01*
Y0122169D02*
G03*
X0252267Y0122169I-0008062J0D01*
G01*
Y0152169D02*
G03*
X0252267Y0152169I-0008062J0D01*
G01*
X0226433Y027413D02*
G03*
X0226433Y027413I-000689J0D01*
G01*
X0320134D02*
G03*
X0320134Y027413I-000689J0D01*
G01*
Y0182398D02*
G03*
X0320134Y0182398I-000689J0D01*
G01*
X0226433D02*
G03*
X0226433Y0182398I-000689J0D01*
G01*
X0111575Y0238169D02*
G03*
X011511Y0229634I0012071J0D01*
G01*
X0168039D02*
G03*
X0171575Y0238169I-0008536J0008536D01*
G01*
X0113575Y0243169D02*
G03*
X0111575Y0238341I0004828J-0004828D01*
G01*
X0118403Y0245169D02*
G03*
X0113575Y0243169I0J-0006828D01*
G01*
X0171575Y0238341D02*
G03*
X0169575Y0243169I-0006828J0D01*
G01*
X0115575Y0229169D02*
G03*
X0167487Y0229332I0026J-0014D01*
G01*
X0169575Y0243169D02*
G03*
X0164746Y0245169I-0004828J-0004828D01*
G01*
X0188854Y0391869D02*
X0188854Y0386869D01*
X0192854D01*
X0192854Y0391869D01*
X0169454Y0368969D02*
X0200054D01*
X0169454Y0391869D02*
X0200054D01*
X0169454Y0360969D02*
Y0391869D01*
Y0360969D02*
X0200054D01*
Y0391869D01*
X0179075Y0386869D02*
Y0391869D01*
X0175075Y0386869D02*
X0179075Y0386869D01*
X0175075Y0386869D02*
Y0391869D01*
X0046075Y0360869D02*
X0078075Y0360869D01*
X0046075Y0360869D02*
Y0391069D01*
X0078075Y0391069D01*
Y0360869D02*
Y0391069D01*
X0046075Y0367169D02*
X0078075D01*
X0072325Y0382669D02*
Y0391069D01*
X0064825Y0382669D02*
X0072325D01*
X0064825D02*
Y0391069D01*
X0057325Y0391069D02*
X0057325Y0382669D01*
X0049825D02*
X0057325D01*
X0049825D02*
Y0391069D01*
X0240205Y0056169D02*
X0248205D01*
X0244205Y0052169D02*
Y0060169D01*
X0219205Y0072169D02*
X0269205D01*
Y0073169D01*
X0219205Y0071169D02*
X0269205D01*
X0219205Y0041169D02*
Y0102169D01*
X0269205D01*
Y0041169D02*
Y0102169D01*
X0219205Y0041169D02*
X0269205D01*
X0240205Y0086169D02*
X0248205D01*
X0244205Y0082169D02*
Y0090169D01*
X0240205Y0122169D02*
X0248205D01*
X0244205Y0118169D02*
Y0126169D01*
X0219205Y0138169D02*
X0269205D01*
Y0139169D01*
X0219205Y0137169D02*
X0269205D01*
X0219205Y0107169D02*
Y0168169D01*
X0269205D01*
Y0107169D02*
Y0168169D01*
X0219205Y0107169D02*
X0269205D01*
X0240205Y0152169D02*
X0248205D01*
X0244205Y0148169D02*
Y0156169D01*
X0203549Y0047236D02*
Y0077669D01*
X0005575Y0047236D02*
X0203549D01*
X0002762D02*
X0005575D01*
X0002762D02*
Y0327669D01*
Y035826D01*
X0203549D01*
Y0077669D02*
Y035826D01*
X0038195Y0047236D02*
Y0059047D01*
X0168116D01*
Y0051173D02*
Y0059047D01*
Y0047236D02*
Y0051173D01*
X0321118Y0255823D02*
Y0282004D01*
Y0174524D02*
Y0200705D01*
X0321Y0255705D02*
X0321118Y0255823D01*
X0313118Y0255705D02*
X0321Y0255705D01*
X0313118Y0200705D02*
Y0255705D01*
Y0200705D02*
X0321118D01*
X0211669Y0282004D02*
X0321118D01*
X0211669Y0174524D02*
X0321118D01*
X0211669D02*
Y0282004D01*
X0171575Y0238169D02*
Y0238341D01*
X0167575Y0229169D02*
X0168039Y0229634D01*
X0111575Y0238169D02*
Y0238341D01*
X0165575Y0245169D02*
X0166575D01*
X0145575D02*
X0165575D01*
X011511Y0229634D02*
X0115575Y0229169D01*
X0118403Y0245169D02*
X0137575D01*
X0130075Y0249669D02*
X0134075D01*
X0132075Y0247669D02*
Y0251669D01*
X0163134Y0259421D02*
Y026202D01*
Y0259421D02*
Y026202D01*
Y0259421D02*
Y026202D01*
X0159925Y0259421D02*
X0163134D01*
X0159925Y0270917D02*
X0163134D01*
Y0268319D02*
Y0270917D01*
X0235275Y0322229D02*
X0240275D01*
X0235275D02*
Y0326229D01*
X0240275D01*
X0235275Y0312449D02*
X0240275D01*
X0235275Y0308449D02*
Y0312449D01*
Y0308449D02*
X0240275D01*
X0235275Y0298669D02*
X0240275D01*
X0235275Y0294669D02*
Y0298669D01*
Y0294669D02*
X0240275D01*
X0217375Y0287469D02*
Y0345629D01*
X0240275Y0287469D02*
Y0345629D01*
X0209375D02*
X0240275D01*
X0209375Y0287469D02*
Y0345629D01*
Y0287469D02*
X0240275D01*
X0235275Y0340008D02*
X0240275D01*
X0235275Y0336008D02*
Y0340008D01*
Y0336008D02*
X0240275D01*
X0143898Y0128858D02*
Y015248D01*
X0132874Y0128858D02*
X0143898D01*
X0132874D02*
Y015248D01*
X0143898D01*
X0200675Y0074795D02*
Y0070859D01*
X0198707D01*
X0198051Y0071515D01*
Y0072827D01*
X0198707Y0073483D01*
X0200675D01*
X0194116Y0071515D02*
X0194772Y0070859D01*
X0196083D01*
X0196739Y0071515D01*
Y0074139D01*
X0196083Y0074795D01*
X0194772D01*
X0194116Y0074139D01*
X019018Y0070859D02*
X0191492Y0071515D01*
X0192804Y0072827D01*
Y0074139D01*
X0192148Y0074795D01*
X0190836D01*
X019018Y0074139D01*
Y0073483D01*
X0190836Y0072827D01*
X0192804D01*
X0184932Y0074795D02*
Y0070859D01*
X0182964D01*
X0182308Y0071515D01*
Y0072827D01*
X0182964Y0073483D01*
X0184932D01*
X0178373Y0071515D02*
X0179029Y0070859D01*
X0180341D01*
X0180996Y0071515D01*
Y0074139D01*
X0180341Y0074795D01*
X0179029D01*
X0178373Y0074139D01*
X0177061Y0070859D02*
X0174437D01*
Y0071515D01*
X0177061Y0074139D01*
Y0074795D01*
X0122836Y0163017D02*
Y0159019D01*
X0124835Y0157019D01*
X0126834Y0159019D01*
Y0163017D01*
X0128834Y0157019D02*
Y0163017D01*
X0131833D01*
X0132833Y0162018D01*
Y0160018D01*
X0131833Y0159019D01*
X0128834D01*
X0130833D02*
X0132833Y0157019D01*
X0134832D02*
X0136831D01*
X0135832D01*
Y0163017D01*
X0134832Y0162018D01*
X0096479Y0033047D02*
X009148D01*
X0090481Y0032047D01*
Y0030048D01*
X009148Y0029048D01*
X0096479D01*
X0095479Y002305D02*
X0096479Y002405D01*
Y0026049D01*
X0095479Y0027049D01*
X0094479D01*
X009348Y0026049D01*
Y002405D01*
X009248Y002305D01*
X009148D01*
X0090481Y002405D01*
Y0026049D01*
X009148Y0027049D01*
X0096479Y0021051D02*
X0090481D01*
Y0018052D01*
X009148Y0017052D01*
X009248D01*
X009348Y0018052D01*
Y0021051D01*
Y0018052D01*
X0094479Y0017052D01*
X0095479D01*
X0096479Y0018052D01*
Y0021051D01*
X0090481Y0015053D02*
Y0013054D01*
Y0014053D01*
X0096479D01*
X0095479Y0015053D01*
X0006477Y0344169D02*
X0011475D01*
X0012475Y0345169D01*
Y0347168D01*
X0011475Y0348168D01*
X0006477D01*
X0007476Y0350167D02*
X0011475Y0354166D01*
Y0350167D02*
X0007476Y0354166D01*
X0009476Y0350167D02*
Y0354166D01*
X0011475Y0352167D02*
X0007476D01*
X0156725Y0150517D02*
X0160723D01*
X0158724D01*
Y0144519D01*
X0162723D02*
Y0150517D01*
X0165722D01*
X0166722Y0149518D01*
Y0147518D01*
X0165722Y0146519D01*
X0162723D01*
X0168721Y0144519D02*
X017072D01*
X0169721D01*
Y0150517D01*
X0168721Y0149518D01*
X0042205Y0378382D02*
X0036207D01*
X0038206Y0380381D01*
X0036207Y0382381D01*
X0042205D01*
Y0387379D02*
X0036207D01*
X0039206Y038438D01*
Y0388379D01*
X0002092Y0036959D02*
Y0042957D01*
X0004092Y0040958D01*
X0006091Y0042957D01*
Y0036959D01*
X000809Y0041958D02*
X000909Y0042957D01*
X0011089D01*
X0012089Y0041958D01*
Y0040958D01*
X0011089Y0039958D01*
X001009D01*
X0011089D01*
X0012089Y0038959D01*
Y0037959D01*
X0011089Y0036959D01*
X000909D01*
X000809Y0037959D01*
X0271693Y0345448D02*
X0265695D01*
X0267694Y0347447D01*
X0265695Y0349446D01*
X0271693D01*
Y0355444D02*
Y0351446D01*
X0267694Y0355444D01*
X0266694D01*
X0265695Y0354445D01*
Y0352445D01*
X0266694Y0351446D01*
X0239743Y003929D02*
Y0045288D01*
X0241742Y0043288D01*
X0243742Y0045288D01*
Y003929D01*
X0245741D02*
X024774D01*
X0246741D01*
Y0045288D01*
X0245741Y0044288D01*
X0209577Y0164169D02*
X0215575D01*
Y0168168D01*
Y0170167D02*
Y0172167D01*
Y0171167D01*
X0209577D01*
X0210576Y0170167D01*
X0205436Y0020085D02*
X0203436D01*
X0204436D01*
Y0015086D01*
X0203436Y0014087D01*
X0202437D01*
X0201437Y0015086D01*
X0207435Y0014087D02*
Y0020085D01*
X0210434D01*
X0211434Y0019085D01*
Y0017086D01*
X0210434Y0016086D01*
X0207435D01*
X0213433Y0020085D02*
X0217432D01*
Y0019085D01*
X0213433Y0015086D01*
Y0014087D01*
X0213824Y0355117D02*
X0211824D01*
X0212824D01*
Y0350119D01*
X0211824Y0349119D01*
X0210824D01*
X0209825Y0350119D01*
X0215823Y0349119D02*
Y0355117D01*
X0218822D01*
X0219822Y0354118D01*
Y0352118D01*
X0218822Y0351119D01*
X0215823D01*
X022582Y0355117D02*
X022382Y0354118D01*
X0221821Y0352118D01*
Y0350119D01*
X0222821Y0349119D01*
X022482D01*
X022582Y0350119D01*
Y0351119D01*
X022482Y0352118D01*
X0221821D01*
X0210077Y0074168D02*
Y0072169D01*
Y0073168D01*
X0215075D01*
X0216075Y0072169D01*
Y0071169D01*
X0215075Y0070169D01*
X0216075Y0076167D02*
X0210077D01*
Y0079166D01*
X0211076Y0080166D01*
X0213076D01*
X0214075Y0079166D01*
Y0076167D01*
X0210077Y0086164D02*
Y0082165D01*
X0213076D01*
X0212076Y0084165D01*
Y0085164D01*
X0213076Y0086164D01*
X0215075D01*
X0216075Y0085164D01*
Y0083165D01*
X0215075Y0082165D01*
X0210477Y0143668D02*
Y0141669D01*
Y0142668D01*
X0215475D01*
X0216475Y0141669D01*
Y0140669D01*
X0215475Y0139669D01*
X0216475Y0145667D02*
X0210477D01*
Y0148666D01*
X0211476Y0149666D01*
X0213476D01*
X0214475Y0148666D01*
Y0145667D01*
X0216475Y0154665D02*
X0210477D01*
X0213476Y0151665D01*
Y0155664D01*
X0084574Y0369667D02*
X0082574D01*
X0083574D01*
Y0364669D01*
X0082574Y0363669D01*
X0081574D01*
X0080575Y0364669D01*
X0086573Y0363669D02*
Y0369667D01*
X0089572D01*
X0090572Y0368668D01*
Y0366668D01*
X0089572Y0365669D01*
X0086573D01*
X0092571Y0368668D02*
X0093571Y0369667D01*
X009557D01*
X009657Y0368668D01*
Y0367668D01*
X009557Y0366668D01*
X009457D01*
X009557D01*
X009657Y0365669D01*
Y0364669D01*
X009557Y0363669D01*
X0093571D01*
X0092571Y0364669D01*
X0153574Y0369167D02*
X0151574D01*
X0152574D01*
Y0364169D01*
X0151574Y0363169D01*
X0150575D01*
X0149575Y0364169D01*
X0155573Y0363169D02*
Y0369167D01*
X0158572D01*
X0159572Y0368168D01*
Y0366168D01*
X0158572Y0365169D01*
X0155573D01*
X016557Y0363169D02*
X0161571D01*
X016557Y0367168D01*
Y0368168D01*
X016457Y0369167D01*
X0162571D01*
X0161571Y0368168D01*
X0123073Y0369667D02*
X0121074D01*
X0122074D01*
Y0364669D01*
X0121074Y0363669D01*
X0120074D01*
X0119075Y0364669D01*
X0125073Y0363669D02*
Y0369667D01*
X0128072D01*
X0129072Y0368668D01*
Y0366668D01*
X0128072Y0365669D01*
X0125073D01*
X0131071Y0363669D02*
X013307D01*
X0132071D01*
Y0369667D01*
X0131071Y0368668D01*
X0136053Y0038537D02*
X0140051D01*
Y0044535D01*
X0136053D01*
X0140051Y0041536D02*
X0138052D01*
X0130054Y0039537D02*
X0131054Y0038537D01*
X0133053D01*
X0134053Y0039537D01*
Y0043536D01*
X0133053Y0044535D01*
X0131054D01*
X0130054Y0043536D01*
X0125056Y0044535D02*
Y0038537D01*
X0128055Y0041536D01*
X0124056D01*
X0155052Y0039037D02*
X0159051D01*
Y0045035D01*
X0155052D01*
X0159051Y0042036D02*
X0157052D01*
X0149054Y0040037D02*
X0150054Y0039037D01*
X0152053D01*
X0153053Y0040037D01*
Y0044036D01*
X0152053Y0045035D01*
X0150054D01*
X0149054Y0044036D01*
X0147055Y0040037D02*
X0146055Y0039037D01*
X0144056D01*
X0143056Y0040037D01*
Y0041037D01*
X0144056Y0042036D01*
X0145056D01*
X0144056D01*
X0143056Y0043036D01*
Y0044036D01*
X0144056Y0045035D01*
X0146055D01*
X0147055Y0044036D01*
X0173553Y0039037D02*
X0177551D01*
Y0045035D01*
X0173553D01*
X0177551Y0042036D02*
X0175552D01*
X0167554Y0040037D02*
X0168554Y0039037D01*
X0170553D01*
X0171553Y0040037D01*
Y0044036D01*
X0170553Y0045035D01*
X0168554D01*
X0167554Y0044036D01*
X0161556Y0045035D02*
X0165555D01*
X0161556Y0041037D01*
Y0040037D01*
X0162556Y0039037D01*
X0164555D01*
X0165555Y0040037D01*
X0190552Y0039037D02*
X0194551D01*
Y0045035D01*
X0190552D01*
X0194551Y0042036D02*
X0192552D01*
X0184554Y0040037D02*
X0185554Y0039037D01*
X0187553D01*
X0188553Y0040037D01*
Y0044036D01*
X0187553Y0045035D01*
X0185554D01*
X0184554Y0044036D01*
X0182555Y0045035D02*
X0180556D01*
X0181555D01*
Y0039037D01*
X0182555Y0040037D01*
X0139075Y0278667D02*
Y0272669D01*
X0142074D01*
X0143073Y0273669D01*
Y0277668D01*
X0142074Y0278667D01*
X0139075D01*
X0149072D02*
X0145073D01*
Y0272669D01*
X0149072D01*
X0145073Y0275668D02*
X0147072D01*
X0151071Y0272669D02*
X015307D01*
X0152071D01*
Y0278667D01*
X0151071Y0277668D01*
X0145077Y0261429D02*
X0151075D01*
Y0264428D01*
X0150075Y0265428D01*
X0146076D01*
X0145077Y0264428D01*
Y0261429D01*
X0151075Y0267427D02*
Y0269427D01*
Y0268427D01*
X0145077D01*
X0146076Y0267427D01*
X012644Y0277833D02*
X012544Y0278833D01*
X0123441D01*
X0122441Y0277833D01*
Y0273834D01*
X0123441Y0272835D01*
X012544D01*
X012644Y0273834D01*
X0132438Y0278833D02*
X0128439D01*
Y0275834D01*
X0130438Y0276833D01*
X0131438D01*
X0132438Y0275834D01*
Y0273834D01*
X0131438Y0272835D01*
X0129439D01*
X0128439Y0273834D01*
X0139574Y0125168D02*
X0138574Y0126167D01*
X0136574D01*
X0135575Y0125168D01*
Y0121169D01*
X0136574Y0120169D01*
X0138574D01*
X0139574Y0121169D01*
X0144572Y0120169D02*
Y0126167D01*
X0141573Y0123168D01*
X0145572D01*
X0139574Y0117168D02*
X0138574Y0118167D01*
X0136574D01*
X0135575Y0117168D01*
Y0113169D01*
X0136574Y0112169D01*
X0138574D01*
X0139574Y0113169D01*
X0141573Y0117168D02*
X0142573Y0118167D01*
X0144572D01*
X0145572Y0117168D01*
Y0116168D01*
X0144572Y0115168D01*
X0143572D01*
X0144572D01*
X0145572Y0114169D01*
Y0113169D01*
X0144572Y0112169D01*
X0142573D01*
X0141573Y0113169D01*
X0157073Y0160168D02*
X0156074Y0161167D01*
X0154075D01*
X0153075Y0160168D01*
Y0156169D01*
X0154075Y0155169D01*
X0156074D01*
X0157073Y0156169D01*
X0163072Y0155169D02*
X0159073D01*
X0163072Y0159168D01*
Y0160168D01*
X0162072Y0161167D01*
X0160073D01*
X0159073Y0160168D01*
X0157073Y0168168D02*
X0156074Y0169167D01*
X0154075D01*
X0153075Y0168168D01*
Y0164169D01*
X0154075Y0163169D01*
X0156074D01*
X0157073Y0164169D01*
X0159073Y0163169D02*
X0161072D01*
X0160073D01*
Y0169167D01*
X0159073Y0168168D01*
X0105575Y0262167D02*
Y0256169D01*
X0108574D01*
X0109573Y0257169D01*
Y0258169D01*
X0108574Y0259168D01*
X0105575D01*
X0108574D01*
X0109573Y0260168D01*
Y0261168D01*
X0108574Y0262167D01*
X0105575D01*
X0111573Y0256169D02*
Y0260168D01*
X0113572Y0262167D01*
X0115572Y0260168D01*
Y0256169D01*
Y0259168D01*
X0111573D01*
X0117571Y0262167D02*
X012157D01*
X011957D01*
Y0256169D01*
X0123569D02*
X0125568D01*
X0124569D01*
Y0262167D01*
X0123569Y0261168D01*
X0Y-0D02*
Y0391339D01*
X0274803D01*
Y0D02*
Y0391339D01*
X0Y-0D02*
X0274803Y0D01*
D11*
X0196713Y0028988D02*
G03*
X0196713Y0028988I-0008661J0D01*
G01*
X0178213Y0029083D02*
G03*
X0178213Y0029083I-0008661J0D01*
G01*
X0159713Y0028988D02*
G03*
X0159713Y0028988I-0008661J0D01*
G01*
X0141213D02*
G03*
X0141213Y0028988I-0008661J0D01*
G01*
X0133819Y0258524D02*
G03*
X0135394Y0260099I0J0001575D01*
G01*
X0129173Y0260099D02*
G03*
X0130748Y0258524I0001575J0D01*
G01*
X0130748Y027061D02*
G03*
X0129173Y0269036I0J-0001575D01*
G01*
X0135394Y0269036D02*
G03*
X0133819Y027061I-0001575J-0D01*
G01*
X0151618Y0167205D02*
G03*
X0150043Y016878I-0001575J0D01*
G01*
X0150043Y0162559D02*
G03*
X0151618Y0164134I-0J0001575D01*
G01*
X0139532Y0164134D02*
G03*
X0141106Y0162559I0001575J-0D01*
G01*
Y016878D02*
G03*
X0139532Y0167205I0J-0001575D01*
G01*
X0151618Y0159705D02*
G03*
X0150043Y016128I-0001575J0D01*
G01*
Y0155059D02*
G03*
X0151618Y0156634I-0J0001575D01*
G01*
X0139532Y0156634D02*
G03*
X0141106Y0155059I0001575J0D01*
G01*
Y016128D02*
G03*
X0139532Y0159705I0J-0001575D01*
G01*
X0121531Y0121634D02*
G03*
X0123106Y0120059I0001575J0D01*
G01*
Y012628D02*
G03*
X0121531Y0124705I0J-0001575D01*
G01*
X0133618Y0124705D02*
G03*
X0132043Y012628I-0001575J0D01*
G01*
Y0120059D02*
G03*
X0133618Y0121634I-0J0001575D01*
G01*
X0121531Y0113634D02*
G03*
X0123106Y0112059I0001575J0D01*
G01*
Y011828D02*
G03*
X0121531Y0116705I0J-0001575D01*
G01*
X0133618Y0116705D02*
G03*
X0132043Y011828I-0001575J0D01*
G01*
Y0112059D02*
G03*
X0133618Y0113634I-0J0001575D01*
G01*
X0166075Y0374169D02*
Y0384169D01*
X0086075Y0374169D02*
X0166075D01*
X0086075Y0384169D02*
X0166075D01*
X0086075Y0374169D02*
Y0384169D01*
X0118937Y0002087D02*
Y0012087D01*
Y0002087D02*
X0218937D01*
Y0012087D01*
X0118937D02*
X0218937D01*
X0054134Y0034417D02*
X0057284Y0034417D01*
X0075Y0034417D02*
X007815Y0034417D01*
X0046654Y000174D02*
X0046654Y-0003378D01*
Y0014732D02*
Y0023394D01*
X008563Y0014732D02*
Y0023394D01*
Y-0003378D02*
X008563Y000174D01*
X0046654Y-0003378D02*
X008563Y-0003378D01*
X0005575Y0077669D02*
Y0327669D01*
X0025575Y0077669D02*
Y0327669D01*
X0005575Y0077669D02*
X0025575D01*
X0180675D02*
X0200675D01*
Y0327669D01*
X0180675Y0077669D02*
Y0327669D01*
X0179551Y0028988D02*
X0180177D01*
X0196551D01*
X0161051Y0029083D02*
X0161677D01*
X0178051D01*
X0142551Y0028988D02*
X0143177D01*
X0159551D01*
X0124051D02*
X0124677D01*
X0141051D01*
X0135394Y0266142D02*
Y0269036D01*
X0130748Y0258524D02*
X0133819D01*
X0130748Y027061D02*
X0133819D01*
X0135394Y0260099D02*
Y0262992D01*
X0129173Y0260099D02*
Y0262992D01*
X0129173Y0266142D02*
Y0269036D01*
X0157032Y0263988D02*
Y026635D01*
X0141106Y016878D02*
X0144D01*
X0151618Y0164134D02*
Y0167205D01*
X0139532Y0164134D02*
Y0167205D01*
X014715Y016878D02*
X0150043D01*
X014715Y0162559D02*
X0150043D01*
X0141106Y0162559D02*
X0144D01*
X0141106Y016128D02*
X0144D01*
X0151618Y0156634D02*
Y0159705D01*
X0139532Y0156634D02*
Y0159705D01*
X014715Y016128D02*
X0150043D01*
X014715Y0155059D02*
X0150043Y0155059D01*
X0141106Y0155059D02*
X0144D01*
X012915Y0120059D02*
X0132043D01*
X0121531Y0121634D02*
Y0124705D01*
X0133618Y0121634D02*
Y0124705D01*
X0123106Y0120059D02*
X0126D01*
X0123106Y012628D02*
X0126Y012628D01*
X012915D02*
X0132043D01*
X012915Y0112059D02*
X0132043D01*
X0121531Y0113634D02*
Y0116705D01*
X0133618Y0113634D02*
Y0116705D01*
X0123106Y0112059D02*
X0126D01*
X0123106Y011828D02*
X0126Y011828D01*
X012915D02*
X0132043D01*
D12*
X0059843Y0037784D02*
X0061343Y0039283D01*
X0058343D02*
X0061343D01*
X0058343D02*
X0059843Y0037784D01*
D13*
X0005575Y0277669D02*
X0025575D01*
X0005575Y0327669D02*
X0025575D01*
X0005575Y0317669D02*
X0025575D01*
X0005575Y0307669D02*
X0025575D01*
X0005575Y0297669D02*
X0025575D01*
X0005575Y0287669D02*
X0025575D01*
X0015575Y0077669D02*
Y0327669D01*
X0005575Y0087669D02*
X0025575D01*
X0005575Y0097669D02*
X0025575D01*
X0005575Y0107669D02*
X0025575D01*
X0005575Y0117669D02*
X0025575D01*
X0005575Y0127669D02*
X0025575D01*
X0005575Y0137669D02*
X0025575D01*
X0005575Y0147669D02*
X0025575D01*
X0005575Y0157669D02*
X0025575D01*
X0005575Y0167669D02*
X0025575D01*
X0005575Y0177669D02*
X0025575D01*
X0005575Y0187669D02*
X0025575D01*
X0005575Y0267669D02*
X0025575D01*
X0005575Y0257669D02*
X0025575D01*
X0005575Y0247669D02*
X0025575D01*
X0005575Y0237669D02*
X0025575D01*
X0005575Y0227669D02*
X0025575D01*
X0005575Y0217669D02*
X0025575D01*
X0005575Y0207669D02*
X0025575D01*
X0005575Y0197669D02*
X0025575D01*
X0180675D02*
X0200675D01*
X0180675Y0207669D02*
X0200675D01*
X0180675Y0217669D02*
X0200675D01*
X0180675Y0227669D02*
X0200675D01*
X0180675Y0237669D02*
X0200675D01*
X0180675Y0247669D02*
X0200675D01*
X0180675Y0257669D02*
X0200675D01*
X0180675Y0267669D02*
X0200675D01*
X0180675Y0187669D02*
X0200675D01*
X0180675Y0177669D02*
X0200675D01*
X0180675Y0167669D02*
X0200675D01*
X0180675Y0157669D02*
X0200675D01*
X0180675Y0147669D02*
X0200675D01*
X0180675Y0137669D02*
X0200675D01*
X0180675Y0127669D02*
X0200675D01*
X0180675Y0117669D02*
X0200675D01*
X0180675Y0107669D02*
X0200675D01*
X0180675Y0097669D02*
X0200675D01*
X0180675Y0087669D02*
X0200675D01*
X0190675Y0077669D02*
Y0327669D01*
X0180675Y0287669D02*
X0200675D01*
X0180675Y0297669D02*
X0200675D01*
X0180675Y0307669D02*
X0200675D01*
X0180675Y0317669D02*
X0200675D01*
X0180675Y0327669D02*
X0200675D01*
X0180675Y0277669D02*
X0200675D01*
D14*
X0179551Y0026941D02*
X0196051D01*
X0180551Y0025441D02*
X0195551D01*
X0181051Y0023941D02*
X0195051D01*
X0182551Y0022441D02*
X0193551D01*
X0161051Y0027035D02*
X0177551D01*
X0162051Y0025535D02*
X0177051D01*
X0162551Y0024035D02*
X0176551D01*
X0164051Y0022535D02*
X0175051D01*
X0142551Y0026941D02*
X0159051D01*
X0143551Y0025441D02*
X0158551D01*
X0144051Y0023941D02*
X0158051Y0023941D01*
X0145551Y0022441D02*
X0156551Y0022441D01*
X0124051Y0026941D02*
X0140551D01*
X0125051Y0025441D02*
X0140051D01*
X0125551Y0023941D02*
X0139551Y0023941D01*
X0127051Y0022441D02*
X0138051Y0022441D01*
M02*
