G04*
G04 #@! TF.GenerationSoftware,Altium Limited,Altium Designer,19.0.4 (130)*
G04*
G04 Layer_Color=16711935*
%FSTAX25Y25*%
%MOIN*%
G70*
G01*
G75*
%ADD10C,0.01000*%
%ADD29C,0.03162*%
%ADD35C,0.35800*%
%ADD36C,0.04300*%
%ADD37C,0.07493*%
%ADD38R,0.07493X0.07493*%
%ADD39C,0.10642*%
%ADD40R,0.10642X0.10642*%
%ADD41O,0.09461X0.12611*%
%ADD42R,0.10642X0.10642*%
%ADD43C,0.07099*%
%ADD44R,0.07099X0.07099*%
%ADD45R,0.05524X0.05524*%
%ADD46C,0.05524*%
%ADD47C,0.06800*%
D10*
X0Y-0D02*
Y0391339D01*
X0274803D01*
Y0D02*
Y0391339D01*
X0Y-0D02*
X0274803Y0D01*
D29*
X0074803Y0020047D02*
D03*
X0057481Y0020047D02*
D03*
D35*
X0018305Y001844D02*
D03*
X0256693Y0372948D02*
D03*
X0018305D02*
D03*
X0256693Y001844D02*
D03*
D36*
X0012205Y0029005D02*
D03*
X0024405D02*
D03*
X0030505Y001844D02*
D03*
X0024405Y0007874D02*
D03*
X0012205D02*
D03*
X0006105Y001844D02*
D03*
X0250593Y0383513D02*
D03*
X0262793D02*
D03*
X0268893Y0372948D02*
D03*
X0262793Y0362382D02*
D03*
X0250593D02*
D03*
X0244493Y0372948D02*
D03*
X0012205Y0383513D02*
D03*
X0024405D02*
D03*
X0030505Y0372948D02*
D03*
X0024405Y0362382D02*
D03*
X0012205D02*
D03*
X0006105Y0372948D02*
D03*
X0250593Y0029005D02*
D03*
X0262793D02*
D03*
X0268893Y001844D02*
D03*
X0262793Y0007874D02*
D03*
X0250593D02*
D03*
X0244493Y001844D02*
D03*
D37*
X0091075Y0379169D02*
D03*
X0101075D02*
D03*
X0111075D02*
D03*
X0121075D02*
D03*
X0131075D02*
D03*
X0141075D02*
D03*
X0151075D02*
D03*
X0173937Y0007087D02*
D03*
X0163937D02*
D03*
X0153937D02*
D03*
X0143937D02*
D03*
X0133937D02*
D03*
X0183937D02*
D03*
X0193937D02*
D03*
X0203937D02*
D03*
X0213937D02*
D03*
D38*
X0161075Y0379169D02*
D03*
X0123937Y0007087D02*
D03*
D39*
X0177075Y0378169D02*
D03*
X0258575Y0086169D02*
D03*
Y0152169D02*
D03*
X0226574Y0324229D02*
D03*
X0226575Y0310449D02*
D03*
X0226574Y0338008D02*
D03*
D40*
X0190854Y0378169D02*
D03*
D41*
X0068575Y0375169D02*
D03*
X0053575Y0375169D02*
D03*
D42*
X0258575Y0056169D02*
D03*
Y0122169D02*
D03*
X0226575Y0296669D02*
D03*
D43*
X0020575Y0282669D02*
D03*
X0010575D02*
D03*
X0020575Y0292669D02*
D03*
X0010575D02*
D03*
X0020575Y0302669D02*
D03*
X0010575D02*
D03*
X0020575Y0312669D02*
D03*
X0010575D02*
D03*
X0020575Y0322669D02*
D03*
X0010575D02*
D03*
X0010575Y0272669D02*
D03*
X0020575D02*
D03*
X0010575Y0262669D02*
D03*
X0020575D02*
D03*
X0010575Y0252669D02*
D03*
X0020575D02*
D03*
X0010575Y0242669D02*
D03*
X0020575D02*
D03*
X0010575Y0232669D02*
D03*
X0020575D02*
D03*
X0010575Y0222669D02*
D03*
X0020575D02*
D03*
X0010575Y0212669D02*
D03*
X0020575D02*
D03*
X0010575Y0202669D02*
D03*
X0020575D02*
D03*
X0010575Y0192669D02*
D03*
X0020575D02*
D03*
X0010575Y0182669D02*
D03*
X0020575D02*
D03*
X0010575Y0172669D02*
D03*
X0020575D02*
D03*
X0010575Y0162669D02*
D03*
X0020575D02*
D03*
X0010575Y0152669D02*
D03*
X0020575D02*
D03*
X0010575Y0142669D02*
D03*
X0020575D02*
D03*
X0010575Y0132669D02*
D03*
X0020575D02*
D03*
X0010575Y0122669D02*
D03*
X0020575D02*
D03*
X0010575Y0112669D02*
D03*
X0020575D02*
D03*
X0010575Y0102669D02*
D03*
X0020575D02*
D03*
X0010575Y0092669D02*
D03*
X0020575D02*
D03*
X0010575Y0082669D02*
D03*
X0185675D02*
D03*
X0195675Y0092669D02*
D03*
X0185675D02*
D03*
X0195675Y0102669D02*
D03*
X0185675D02*
D03*
X0195675Y0112669D02*
D03*
X0185675D02*
D03*
X0195675Y0122669D02*
D03*
X0185675D02*
D03*
X0195675Y0132669D02*
D03*
X0185675D02*
D03*
X0195675Y0142669D02*
D03*
X0185675D02*
D03*
X0195675Y0152669D02*
D03*
X0185675D02*
D03*
X0195675Y0162669D02*
D03*
X0185675D02*
D03*
X0195675Y0172669D02*
D03*
X0185675D02*
D03*
X0195675Y0182669D02*
D03*
X0185675D02*
D03*
X0195675Y0192669D02*
D03*
X0185675D02*
D03*
X0195675Y0202669D02*
D03*
X0185675D02*
D03*
X0195675Y0212669D02*
D03*
X0185675D02*
D03*
X0195675Y0222669D02*
D03*
X0185675D02*
D03*
X0195675Y0232669D02*
D03*
X0185675D02*
D03*
X0195675Y0242669D02*
D03*
X0185675D02*
D03*
X0195675Y0252669D02*
D03*
X0185675D02*
D03*
X0195675Y0262669D02*
D03*
X0185675D02*
D03*
X0195675Y0272669D02*
D03*
X0185675D02*
D03*
X0185675Y0322669D02*
D03*
X0195675D02*
D03*
X0185675Y0312669D02*
D03*
X0195675D02*
D03*
X0185675Y0302669D02*
D03*
X0195675D02*
D03*
X0185675Y0292669D02*
D03*
X0195675D02*
D03*
X0185675Y0282669D02*
D03*
X0195675D02*
D03*
D44*
X0020575Y0082669D02*
D03*
X0195675D02*
D03*
D45*
X0188051Y0031941D02*
D03*
X0169551Y0032035D02*
D03*
X0151051Y0031941D02*
D03*
X0132551D02*
D03*
D46*
X0188051Y0026035D02*
D03*
X0169551Y002613D02*
D03*
X0151051Y0026035D02*
D03*
X0132551D02*
D03*
D47*
X0217575Y0258169D02*
D03*
Y0248169D02*
D03*
Y0238169D02*
D03*
Y0228169D02*
D03*
Y0218169D02*
D03*
Y0208169D02*
D03*
Y0198169D02*
D03*
M02*
