G04*
G04 #@! TF.GenerationSoftware,Altium Limited,Altium Designer,19.0.4 (130)*
G04*
G04 Layer_Color=255*
%FSTAX25Y25*%
%MOIN*%
G70*
G01*
G75*
%ADD10C,0.01000*%
%ADD48C,0.02362*%
%ADD54C,0.35000*%
%ADD55C,0.03500*%
%ADD56C,0.06693*%
%ADD57R,0.06693X0.06693*%
%ADD58C,0.09843*%
%ADD59R,0.09843X0.09843*%
%ADD60O,0.08661X0.11811*%
%ADD61R,0.09843X0.09843*%
%ADD62C,0.06299*%
%ADD63R,0.06299X0.06299*%
%ADD64R,0.04724X0.04724*%
%ADD65C,0.04724*%
%ADD66C,0.06000*%
D10*
X0Y-0D02*
Y0391339D01*
X0274803D01*
Y0D02*
Y0391339D01*
X0Y-0D02*
X0274803Y0D01*
D48*
X0074803Y0020047D02*
D03*
X0057481Y0020047D02*
D03*
D54*
X0018305Y001844D02*
D03*
X0256693Y0372948D02*
D03*
X0018305D02*
D03*
X0256693Y001844D02*
D03*
D55*
X0012205Y0029005D02*
D03*
X0024405D02*
D03*
X0030505Y001844D02*
D03*
X0024405Y0007874D02*
D03*
X0012205D02*
D03*
X0006105Y001844D02*
D03*
X0250593Y0383513D02*
D03*
X0262793D02*
D03*
X0268893Y0372948D02*
D03*
X0262793Y0362382D02*
D03*
X0250593D02*
D03*
X0244493Y0372948D02*
D03*
X0012205Y0383513D02*
D03*
X0024405D02*
D03*
X0030505Y0372948D02*
D03*
X0024405Y0362382D02*
D03*
X0012205D02*
D03*
X0006105Y0372948D02*
D03*
X0250593Y0029005D02*
D03*
X0262793D02*
D03*
X0268893Y001844D02*
D03*
X0262793Y0007874D02*
D03*
X0250593D02*
D03*
X0244493Y001844D02*
D03*
D56*
X0091075Y0379169D02*
D03*
X0101075D02*
D03*
X0111075D02*
D03*
X0121075D02*
D03*
X0131075D02*
D03*
X0141075D02*
D03*
X0151075D02*
D03*
X0173937Y0007087D02*
D03*
X0163937D02*
D03*
X0153937D02*
D03*
X0143937D02*
D03*
X0133937D02*
D03*
X0183937D02*
D03*
X0193937D02*
D03*
X0203937D02*
D03*
X0213937D02*
D03*
D57*
X0161075Y0379169D02*
D03*
X0123937Y0007087D02*
D03*
D58*
X0177075Y0378169D02*
D03*
X0258575Y0086169D02*
D03*
Y0152169D02*
D03*
X0226574Y0324229D02*
D03*
X0226575Y0310449D02*
D03*
X0226574Y0338008D02*
D03*
D59*
X0190854Y0378169D02*
D03*
D60*
X0068575Y0375169D02*
D03*
X0053575Y0375169D02*
D03*
D61*
X0258575Y0056169D02*
D03*
Y0122169D02*
D03*
X0226575Y0296669D02*
D03*
D62*
X0020575Y0282669D02*
D03*
X0010575D02*
D03*
X0020575Y0292669D02*
D03*
X0010575D02*
D03*
X0020575Y0302669D02*
D03*
X0010575D02*
D03*
X0020575Y0312669D02*
D03*
X0010575D02*
D03*
X0020575Y0322669D02*
D03*
X0010575D02*
D03*
X0010575Y0272669D02*
D03*
X0020575D02*
D03*
X0010575Y0262669D02*
D03*
X0020575D02*
D03*
X0010575Y0252669D02*
D03*
X0020575D02*
D03*
X0010575Y0242669D02*
D03*
X0020575D02*
D03*
X0010575Y0232669D02*
D03*
X0020575D02*
D03*
X0010575Y0222669D02*
D03*
X0020575D02*
D03*
X0010575Y0212669D02*
D03*
X0020575D02*
D03*
X0010575Y0202669D02*
D03*
X0020575D02*
D03*
X0010575Y0192669D02*
D03*
X0020575D02*
D03*
X0010575Y0182669D02*
D03*
X0020575D02*
D03*
X0010575Y0172669D02*
D03*
X0020575D02*
D03*
X0010575Y0162669D02*
D03*
X0020575D02*
D03*
X0010575Y0152669D02*
D03*
X0020575D02*
D03*
X0010575Y0142669D02*
D03*
X0020575D02*
D03*
X0010575Y0132669D02*
D03*
X0020575D02*
D03*
X0010575Y0122669D02*
D03*
X0020575D02*
D03*
X0010575Y0112669D02*
D03*
X0020575D02*
D03*
X0010575Y0102669D02*
D03*
X0020575D02*
D03*
X0010575Y0092669D02*
D03*
X0020575D02*
D03*
X0010575Y0082669D02*
D03*
X0185675D02*
D03*
X0195675Y0092669D02*
D03*
X0185675D02*
D03*
X0195675Y0102669D02*
D03*
X0185675D02*
D03*
X0195675Y0112669D02*
D03*
X0185675D02*
D03*
X0195675Y0122669D02*
D03*
X0185675D02*
D03*
X0195675Y0132669D02*
D03*
X0185675D02*
D03*
X0195675Y0142669D02*
D03*
X0185675D02*
D03*
X0195675Y0152669D02*
D03*
X0185675D02*
D03*
X0195675Y0162669D02*
D03*
X0185675D02*
D03*
X0195675Y0172669D02*
D03*
X0185675D02*
D03*
X0195675Y0182669D02*
D03*
X0185675D02*
D03*
X0195675Y0192669D02*
D03*
X0185675D02*
D03*
X0195675Y0202669D02*
D03*
X0185675D02*
D03*
X0195675Y0212669D02*
D03*
X0185675D02*
D03*
X0195675Y0222669D02*
D03*
X0185675D02*
D03*
X0195675Y0232669D02*
D03*
X0185675D02*
D03*
X0195675Y0242669D02*
D03*
X0185675D02*
D03*
X0195675Y0252669D02*
D03*
X0185675D02*
D03*
X0195675Y0262669D02*
D03*
X0185675D02*
D03*
X0195675Y0272669D02*
D03*
X0185675D02*
D03*
X0185675Y0322669D02*
D03*
X0195675D02*
D03*
X0185675Y0312669D02*
D03*
X0195675D02*
D03*
X0185675Y0302669D02*
D03*
X0195675D02*
D03*
X0185675Y0292669D02*
D03*
X0195675D02*
D03*
X0185675Y0282669D02*
D03*
X0195675D02*
D03*
D63*
X0020575Y0082669D02*
D03*
X0195675D02*
D03*
D64*
X0188051Y0031941D02*
D03*
X0169551Y0032035D02*
D03*
X0151051Y0031941D02*
D03*
X0132551D02*
D03*
D65*
X0188051Y0026035D02*
D03*
X0169551Y002613D02*
D03*
X0151051Y0026035D02*
D03*
X0132551D02*
D03*
D66*
X0217575Y0258169D02*
D03*
Y0248169D02*
D03*
Y0238169D02*
D03*
Y0228169D02*
D03*
Y0218169D02*
D03*
Y0208169D02*
D03*
Y0198169D02*
D03*
M02*
