M48
;Layer_Color=9474304
;FILE_FORMAT=2:5
INCH,LZ
;TYPE=PLATED
T1F00S00C0.01200
T2F00S00C0.02362
T3F00S00C0.03000
T4F00S00C0.03543
T5F00S00C0.03937
T6F00S00C0.04000
T7F00S00C0.04724
T8F00S00C0.05906
T9F00S00C0.14000
;TYPE=NON_PLATED
T10F00S00C0.03543
%
T01
X0009449Y0042126
X0016929Y0042126
X0024409Y0042126
X003189Y0042126
X003937Y0042126
X0047244Y0042126
X0047244Y005
X003937Y005
X003189Y005
X0024409Y005
X0016929Y005
X0009449Y005
X0073622Y005
X0081102Y005
X0088583Y005
X0096063Y005
X0103543Y0042126
X0109188Y003622
X0115615Y0029726
X0110236Y0016142
X0098032Y0026756
X0097244Y000559
X0077444Y0003214
X0077444Y0009843
X0069964Y0009843
X0069964Y0003214
X0062484Y0003214
X0062484Y0009843
X0055003Y0009843
X0055003Y0003214
X0055003Y0028945
X0077444Y0028945
X0133937Y0054331
X0133937Y0061024
X0133937Y0067717
X0133937Y0074803
X0133937Y008189
X0133937Y0088583
X0133937Y0095276
X0133937Y0102362
X0141417Y0102362
X0141417Y0095276
X0141417Y0088583
X0141417Y008189
X0141417Y0074803
X0141417Y0067717
X0141417Y0061024
X0141417Y0054331
X0148898Y0054331
X0148898Y0061024
X0148898Y0067717
X0148898Y0074803
X0148898Y008189
X0148898Y0088583
X0148898Y0095276
X0148898Y0102362
X0156378Y0102362
X0156378Y0095276
X0156378Y0088583
X0156378Y008189
X0156378Y0074803
X0156378Y0067717
X0156378Y0061024
X0156378Y0054331
X0168898Y0054331
X0168838Y006063
X0168838Y0066764
X0168838Y0073457
X0168838Y0080808
X0168838Y0087501
X0168838Y0094194
X0168838Y0101281
X0169051Y0109283
X0169051Y0115976
X0169051Y0122669
X0169078Y012966
X0169078Y0136353
X0169078Y0143705
X0169078Y0150398
X0169078Y0157091
X0169078Y0164177
X0169291Y017218
X0161757Y0192264
X0161757Y0198957
X0154511Y0198957
X0154511Y0192264
X0154511Y0206308
X0161757Y0206308
X012555Y0205906
X012555Y0199213
X012555Y0190286
X012555Y01832
X012555Y0176507
X012555Y0169814
X0125337Y0161811
X0125337Y0154724
X0225984Y0187008
X0225984Y0193701
X0225984Y0200394
X0225984Y020748
X0233465Y020748
X0233465Y0200394
X0233465Y0193701
X0233465Y0187008
X0240945Y0187008
X0240945Y0193701
X0240945Y0200394
X0240945Y020748
X0248425Y020748
X0248425Y0200394
X0248425Y0193701
X011807Y0190286
X011807Y01832
X011807Y0176507
X011807Y0169814
X011059Y0169814
X011059Y0176507
X011059Y01832
X011059Y0190286
X0103109Y0190286
X0103109Y01832
X0103109Y0176507
X0103109Y0169814
X0102896Y0161811
X0102896Y0154724
X0102896Y0148031
X0102896Y0141339
X0093814Y0142119
X0093814Y0135426
X0093814Y0148812
X0094062Y0156958
X0094062Y0163651
X0094062Y0170343
X0094062Y017743
X0094275Y0185433
X0094275Y0192126
X0094275Y0198819
X0094275Y020617
X0103109Y0205906
X0103109Y0199213
X011059Y0199213
X011059Y0205906
X011807Y0205906
X011807Y0199213
X0117857Y0161811
X0117857Y0154724
X0110376Y0154724
X0110376Y0148031
X0110376Y0161811
X0117857Y0141339
X011807Y0130709
X011807Y0123622
X011807Y0116929
X011807Y0110236
X011059Y0110236
X011059Y0116929
X011059Y0123622
X011059Y0130709
X0103109Y0123622
X0103109Y0116929
X0103109Y0110236
X0103109Y0102362
X0103109Y0095276
X0103109Y0088583
X0103109Y008189
X011059Y008189
X011059Y0088583
X011059Y0095276
X011059Y0102362
X011807Y0102362
X011807Y0095276
X011807Y0088583
X011807Y008189
X011811Y007441
X011063Y0074303
X011811Y0065777
X0088583Y0056693
X0081102Y0056693
X0081102Y0063386
X0073622Y0063386
X0073622Y0056693
X0073622Y0070473
X0047244Y0063386
X0047244Y0056693
X003937Y0056693
X003937Y0063386
X003937Y0070473
X003189Y0070473
X003189Y0063386
X003189Y0056693
X0024409Y0056693
X0024409Y0063386
X0024409Y0070473
X0016929Y0070473
X0016929Y0063386
X0016929Y0056693
X0009449Y0056693
X0009449Y0063386
X0009449Y0070473
X0038527Y0087795
X0038527Y0095276
X0031834Y0095276
X0031025Y0102589
X0031025Y0109676
X0031025Y0116369
X0031025Y0123062
X0031025Y0130315
X0031025Y0137402
X0031025Y0144095
X0031025Y0150787
X0038505Y0150787
X0038505Y0144095
X0038505Y0137402
X0038505Y0130315
X0038505Y0123062
X0038505Y0116369
X0038505Y0109676
X0038505Y0102589
X004685Y0102362
X004685Y0095276
X0054831Y0095276
X0054605Y0102362
X0054503Y0109676
X0054331Y0116535
X0054331Y0123622
X0054331Y0130315
X0054331Y0137008
X004685Y0137008
X004685Y0130315
X004685Y0123622
X004685Y0116535
X0047023Y0109843
X0046625Y0144882
X0046625Y0151969
X0046625Y0158661
X0046625Y0165354
X0046766Y0171654
X0054246Y0171654
X0054105Y0165354
X0054105Y0158661
X0054105Y0151969
X0054105Y0144882
X0038505Y0158542
X0038505Y0165354
X0031805Y0171654
X0031805Y0178347
X0031805Y0185433
X0031805Y0192126
X0031805Y0198713
X0031805Y0205405
X0039285Y0205405
X0039285Y0198713
X0039285Y0192126
X0039285Y0185433
X0039285Y0178347
X0046766Y0185433
X0046766Y0192126
X0046766Y0198713
X0046766Y0205405
X0054246Y0205405
X0054246Y0198713
X0054246Y0192126
X0054246Y0178347
X0093601Y0120336
X0093601Y0113644
X0093601Y0106951
X0094275Y0212863
X0094275Y0219556
X0094275Y0226643
X0094488Y0234646
X0094488Y0241339
X0094488Y0248031
X0103109Y0248031
X0103109Y0240945
X0103109Y0234252
X0103109Y0227559
X011059Y0227559
X011059Y0234252
X011059Y0240945
X011059Y0248031
X011807Y0248031
X011807Y0240945
X011807Y0234252
X011807Y0227559
X011807Y0219685
X011807Y0212598
X011059Y0212598
X011059Y0219685
X0103109Y0219685
X0103109Y0212598
X0054246Y0211228
X0054246Y0217921
X0054246Y0224016
X0054246Y0230709
X0054246Y0237209
X0054246Y0243902
X0054246Y025
X0054246Y0256693
X0046766Y0256693
X0046766Y025
X0046766Y0243902
X0046766Y0237209
X0046766Y0230709
X0046766Y0224016
X0046766Y0217921
X0046766Y0211228
X0039285Y0211228
X0039285Y0217921
X0039285Y0224016
X0039285Y0230709
X0039285Y0237209
X0039285Y0243902
X0039285Y025
X0039285Y0256693
X0031805Y0256693
X0031805Y025
X0031805Y0243902
X0031805Y0237209
X0031805Y0230709
X0031805Y0224016
X0031805Y0217921
X0031805Y0211228
X0031805Y0270473
X0039285Y0270473
X0046766Y0270473
X0054246Y0270473
X0053937Y027807
X0053937Y0284763
X0053937Y0291456
X0053937Y0298543
X0046457Y0298543
X0046457Y0291456
X0046457Y0284763
X0046457Y027807
X0038976Y027807
X0038976Y0284763
X0038976Y0291456
X0038976Y0298543
X0031496Y0298543
X0031496Y0291456
X0031496Y0284763
X0031496Y027807
X0031805Y0312205
X0031805Y0318898
X0031805Y0325984
X0039285Y0325984
X0039285Y0318898
X0039285Y0312205
X0046766Y0312205
X0046766Y0318898
X0046766Y0325984
X0054246Y0325984
X0054246Y0318898
X0054246Y0312205
X0052756Y0334252
X0052756Y0340945
X0052756Y0347638
X0052756Y0354724
X0045276Y0354724
X0045276Y0347638
X0045276Y0340945
X0045276Y0334252
X0037795Y0334252
X0037795Y0340945
X0037795Y0347638
X0037795Y0354724
X0029921Y0354724
X0029921Y0347638
X0029921Y0340945
X0029921Y0334252
X0022441Y0334252
X0022441Y0340945
X0022441Y0347638
X0014961Y0347638
X0014961Y0340945
X0014961Y0334252
X000748Y0334252
X000748Y0340945
X000748Y0347638
X000748Y0354724
X0083071Y0354724
X0083071Y0347638
X0083071Y0340945
X0083071Y0334252
X0090551Y0334252
X0090551Y0340945
X0090551Y0347638
X0090551Y0354724
X0098032Y0354724
X0098032Y0347638
X0098032Y0340945
X0098032Y0334252
X0105512Y0334252
X0105512Y0340945
X0105512Y0347638
X0105512Y0354724
X0114173Y0354724
X0114173Y0347638
X0114173Y0340945
X0114173Y0334252
X0105512Y0326484
X0105512Y0319398
X0105512Y0312705
X0105512Y0306012
X0098032Y0306012
X0098032Y0312705
X0098032Y0319398
X0098032Y0326484
X0090551Y0326484
X0090551Y0319398
X0090551Y0312705
X0090551Y0306012
X0083071Y0312705
X0083071Y0319398
X0083071Y0326484
X0089764Y0281496
X0082284Y0265169
X0115615Y0279954
X0115615Y0286647
X0115615Y029334
X0115615Y0300427
X0123096Y0300427
X0123096Y029334
X0123096Y0286647
X0123096Y0279954
X0130576Y0279954
X0130576Y0286647
X0130576Y029334
X0130576Y0300427
X0138056Y0300427
X0144988Y0300427
X0144988Y0306012
X0144988Y0312705
X0144988Y0319398
X0144988Y0326484
X0152469Y0326484
X0152469Y0319398
X0152469Y0312705
X0152469Y0306012
X0152469Y0300427
X0152469Y029334
X0152469Y0286647
X0152469Y0279954
X0144988Y0279954
X0144988Y0286647
X0144988Y029334
X0138056Y029334
X0138056Y0286647
X0138056Y0279954
X0167429Y0279954
X0167429Y0286647
X0167429Y029334
X0167429Y0306012
X0167429Y0312705
X0167429Y0319398
X0167429Y0326484
X0159949Y0326484
X0159949Y0319398
X0159949Y0312705
X0159949Y0306012
X0159949Y0300427
X0159449Y0340945
X0159449Y0347638
X0159449Y0354724
X0166929Y0354724
X0166929Y0347638
X0151969Y0347638
X0151969Y0340945
X0144488Y0340945
X0144488Y0347638
X0144488Y0354724
X0151969Y0354724
X0136614Y0354724
X0136614Y0347638
X0136614Y0340945
X0129134Y0340945
X0129134Y0334252
X0121654Y0334252
X0121654Y0340945
X0121654Y0347638
X0121654Y0354724
X0129134Y0354724
X0129134Y0347638
X0195175Y0350787
X0195175Y0344094
X0195175Y0337402
X0202655Y0337402
X0202655Y0344094
X0202655Y0350787
X0202655Y0357874
X0210135Y0357874
X0210135Y0350787
X0210135Y0344094
X0210135Y0337402
X0217616Y0337402
X0217616Y0344094
X0217616Y0350787
X0217616Y0357874
X0244488Y0351575
X0244488Y0337795
X0244488Y0331102
X0244488Y0323903
X0244488Y0316816
X0244488Y0310123
X0244488Y030343
X0251969Y030343
X0251969Y0310123
X0251969Y0316816
X0251969Y0323903
X0251969Y0331102
X0259449Y0331102
X0259449Y0337795
X0259449Y0344488
X0266929Y0344488
X0266929Y0337795
X0266929Y0331102
X0266929Y0323903
X0266929Y0316816
X0266929Y0310123
X0266929Y030343
X0259449Y030343
X0259449Y0310123
X0259449Y0316816
X0259449Y0323903
X0251969Y0344488
X0266929Y0351575
X0266929Y029528
X0266929Y0288193
X0259449Y0288193
X0259449Y029528
X0251969Y029528
X0251969Y0288193
X0244488Y0288193
X0244488Y029528
X0255118Y0280709
X0248515Y0264567
X0248515Y025748
X0248515Y0250787
X0248515Y0244094
X0241035Y0244094
X0241035Y0250787
X0241035Y025748
X0241035Y0264567
X0233555Y0264567
X0233555Y025748
X0233555Y0250787
X0233555Y0244094
X0226075Y0244094
X0226075Y0250787
X0226075Y025748
X0226075Y0264567
X0226075Y0235862
X0226075Y0228776
X0226075Y0222083
X0226075Y021539
X0233555Y021539
X0233555Y0222083
X0233555Y0228776
X0233555Y0235862
X0241035Y0235862
X0241035Y0228776
X0241035Y0222083
X0241035Y021539
X0248515Y021539
X0248515Y0222083
X0248515Y0228776
X0248515Y0235862
X016197Y0234784
X016197Y0241476
X016197Y0248169
X0154724Y0248169
X0154724Y0241476
X0154724Y0234784
X0154511Y0226781
X0154511Y0219694
X0154511Y0213001
X0161757Y0213001
X0161757Y0219694
X0161757Y0226781
X012555Y0227559
X012555Y0234252
X012555Y0240945
X012555Y0248031
X012555Y0219685
X012555Y0212598
X0206299Y0366255
X0206299Y0372948
X0206299Y0379641
X0206299Y0386727
X0213779Y0386727
X0213779Y0379641
X0213779Y0372948
X0213779Y0366255
X022126Y0366255
X022126Y0372948
X022126Y0379641
X022126Y0386727
X022874Y0386727
X022874Y0379641
X022874Y0372948
X022874Y0366255
T02
X0132551Y0026035
X0132551Y0031941
X0151051Y0031941
X0151051Y0026035
X0169551Y002613
X0169551Y0032035
X0188051Y0031941
X0188051Y0026035
T03
X0217575Y0198169
X0217575Y0208169
X0217575Y0218169
X0217575Y0228169
X0217575Y0238169
X0217575Y0248169
X0217575Y0258169
T04
X0123937Y0007087
X0133937Y0007087
X0143937Y0007087
X0153937Y0007087
X0163937Y0007087
X0173937Y0007087
X0183937Y0007087
X0193937Y0007087
X0203937Y0007087
X0213937Y0007087
X0195675Y0082669
X0185675Y0082669
X0185675Y0092669
X0195675Y0092669
X0195675Y0102669
X0185675Y0102669
X0185675Y0112669
X0195675Y0112669
X0195675Y0122669
X0185675Y0122669
X0185675Y0132669
X0195675Y0132669
X0195675Y0142669
X0185675Y0142669
X0185675Y0152669
X0195675Y0152669
X0195675Y0162669
X0185675Y0162669
X0185675Y0172669
X0195675Y0172669
X0195675Y0182669
X0185675Y0182669
X0185675Y0192669
X0195675Y0192669
X0195675Y0202669
X0185675Y0202669
X0020575Y0202669
X0010575Y0202669
X0010575Y0192669
X0020575Y0192669
X0020575Y0182669
X0010575Y0182669
X0010575Y0172669
X0020575Y0172669
X0020575Y0162669
X0010575Y0162669
X0010575Y0152669
X0020575Y0152669
X0020575Y0142669
X0010575Y0142669
X0010575Y0132669
X0020575Y0132669
X0020575Y0122669
X0010575Y0122669
X0010575Y0112669
X0020575Y0112669
X0020575Y0102669
X0010575Y0102669
X0010575Y0092669
X0020575Y0092669
X0020575Y0082669
X0010575Y0082669
X0010575Y0212669
X0010575Y0222669
X0010575Y0232669
X0010575Y0242669
X0010575Y0252669
X0010575Y0262669
X0010575Y0272669
X0020575Y0272669
X0020575Y0262669
X0020575Y0252669
X0020575Y0242669
X0020575Y0232669
X0020575Y0222669
X0020575Y0212669
X0020575Y0282669
X0010575Y0282669
X0010575Y0292669
X0020575Y0292669
X0020575Y0302669
X0010575Y0302669
X0010575Y0312669
X0020575Y0312669
X0020575Y0322669
X0010575Y0322669
X0185675Y0322669
X0195675Y0322669
X0195675Y0312669
X0185675Y0312669
X0185675Y0302669
X0195675Y0302669
X0195675Y0292669
X0185675Y0292669
X0185675Y0282669
X0195675Y0282669
X0195675Y0272669
X0195675Y0262669
X0195675Y0252669
X0195675Y0242669
X0195675Y0232669
X0195675Y0222669
X0195675Y0212669
X0185675Y0212669
X0185675Y0222669
X0185675Y0232669
X0185675Y0242669
X0185675Y0252669
X0185675Y0262669
X0185675Y0272669
X0161075Y0379169
X0151075Y0379169
X0141075Y0379169
X0131075Y0379169
X0121075Y0379169
X0111075Y0379169
X0101075Y0379169
X0091075Y0379169
T05
X0053575Y0375169
X0068575Y0375169
T06
X0012205Y0007874
X0024405Y0007874
X0030505Y001844
X0024405Y0029005
X0012205Y0029005
X0006105Y001844
X0244493Y001844
X0250593Y0029005
X0262793Y0029005
X0268893Y001844
X0262793Y0007874
X0250593Y0007874
X0024405Y0362382
X0012205Y0362382
X0250593Y0362382
X0262793Y0362382
X0268893Y0372948
X0262793Y0383513
X0250593Y0383513
X0244493Y0372948
X0030505Y0372948
X0024405Y0383513
X0012205Y0383513
X0006105Y0372948
T07
X0258575Y0056169
X0258575Y0086169
X0258575Y0122169
X0258575Y0152169
T08
X0226575Y0296669
X0226575Y0310449
X0226574Y0324229
X0226574Y0338008
X0190854Y0378169
X0177075Y0378169
T09
X0018305Y001844
X0256693Y001844
X0256693Y0372948
X0018305Y0372948
T10
X0057481Y0020047
X0074803Y0020047
M30
